<?xml version="1.0" encoding="UTF-8" standalone="no"?>
<svg
   xmlns:dc="http://purl.org/dc/elements/1.1/"
   xmlns:cc="http://creativecommons.org/ns#"
   xmlns:rdf="http://www.w3.org/1999/02/22-rdf-syntax-ns#"
   xmlns:svg="http://www.w3.org/2000/svg"
   xmlns="http://www.w3.org/2000/svg"
   xmlns:sodipodi="http://sodipodi.sourceforge.net/DTD/sodipodi-0.dtd"
   xmlns:inkscape="http://www.inkscape.org/namespaces/inkscape"
   width="2424px"
   height="867px"
   viewBox="0 0 2424 867"
   version="1.1"
   preserveAspectRatio="none"
   id="svg1361"
   sodipodi:docname="bgoval-dark.svg"
   inkscape:version="0.92.3 (2405546, 2018-03-11)">
  <metadata
     id="metadata1367">
    <rdf:RDF>
      <cc:Work
         rdf:about="">
        <dc:format>image/svg+xml</dc:format>
        <dc:type
           rdf:resource="http://purl.org/dc/dcmitype/StillImage" />
      </cc:Work>
    </rdf:RDF>
  </metadata>
  <defs
     id="defs1365" />
  <sodipodi:namedview
     pagecolor="#ffffff"
     bordercolor="#666666"
     borderopacity="1"
     objecttolerance="10"
     gridtolerance="10"
     guidetolerance="10"
     inkscape:pageopacity="0"
     inkscape:pageshadow="2"
     inkscape:window-width="1853"
     inkscape:window-height="1025"
     id="namedview1363"
     showgrid="false"
     inkscape:zoom="0.56559406"
     inkscape:cx="1212"
     inkscape:cy="433.5"
     inkscape:window-x="67"
     inkscape:window-y="27"
     inkscape:window-maximized="1"
     inkscape:current-layer="svg1361" />
  <!-- Generator: Sketch 55.2 (78181) - https://sketchapp.com -->
  <title
     id="title1353">Oval</title>
  <desc
     id="desc1355">Created with Sketch.</desc>
  <g
     id="Design"
     stroke="none"
     stroke-width="1"
     fill="none"
     fill-rule="evenodd"
     style="fill:#ff00ff">
    <g
       id="Home"
       transform="translate(-36.000000, -2092.000000)"
       fill="#1a237e"
       fill-rule="nonzero"
       style="fill:#ff00ff">
      <g
         id="Verify"
         transform="translate(36.000000, 1000.000000)"
         style="fill:#ff00ff">
        <ellipse
           id="Oval"
           cx="1212"
           cy="1525.5"
           rx="1212"
           ry="433.5"
           style="fill:#ff00ff" />
      </g>
    </g>
  </g>
  <path
     style="opacity:0;fill:#ff00ff;fill-opacity:1;stroke:#d38d5f;stroke-width:1.44114149"
     d="M 1095.844,865.72576 C 748.28765,853.27363 436.48805,789.60122 231.87967,689.2961 105.2454,627.21621 28.057205,555.00731 5.7315565,477.73649 -15.857428,403.01532 18.675415,325.09494 103.49837,257.13413 261.97136,130.16431 577.52768,38.367563 956.05327,9.1220865 1052.5794,1.6643252 1132.9671,-0.8438025 1243.561,0.15173306 1334.912,0.9740497 1360.4591,1.8765759 1437.3945,6.9994854 1795.0201,30.812738 2103.9533,111.49193 2278.3006,226.60565 c 30.0358,19.83134 50.9821,36.65555 73.6616,59.16579 25.25,25.06143 40.8251,45.75053 53.1698,70.62749 26.2036,52.80537 26.2036,101.39677 0,154.20214 -12.3888,24.96579 -27.9273,45.60167 -53.1728,70.61593 -65.5464,64.94605 -166.4913,120.21684 -305.6824,167.3715 -198.9991,67.41622 -444.2159,107.19382 -722.7324,117.23732 -45.0417,1.62424 -181.2435,1.56439 -227.7004,-0.10002 z"
     id="path1369"
     inkscape:connector-curvature="0" />
  <path
     style="opacity:0;fill:#ff00ff;fill-opacity:1;stroke:#d38d5f;stroke-width:1.44114149"
     d="M 1095.844,865.72576 C 748.28765,853.27363 436.48805,789.60122 231.87967,689.2961 105.2454,627.21621 28.057205,555.00731 5.7315565,477.73649 -15.857428,403.01532 18.675415,325.09494 103.49837,257.13413 261.97136,130.16431 577.52768,38.367563 956.05327,9.1220865 1052.5794,1.6643252 1132.9671,-0.8438025 1243.561,0.15173306 1334.912,0.9740497 1360.4591,1.8765759 1437.3945,6.9994854 1795.0201,30.812738 2103.9533,111.49193 2278.3006,226.60565 c 30.0358,19.83134 50.9821,36.65555 73.6616,59.16579 25.25,25.06143 40.8251,45.75053 53.1698,70.62749 26.2036,52.80537 26.2036,101.39677 0,154.20214 -12.3888,24.96579 -27.9273,45.60167 -53.1728,70.61593 -65.5464,64.94605 -166.4913,120.21684 -305.6824,167.3715 -198.9991,67.41622 -444.2159,107.19382 -722.7324,117.23732 -45.0417,1.62424 -181.2435,1.56439 -227.7004,-0.10002 z"
     id="path1371"
     inkscape:connector-curvature="0" />
  <path
     style="opacity:0;fill:#ff00ff;fill-opacity:1;stroke:#d38d5f;stroke-width:1.44114149"
     d="M 1095.844,865.72576 C 748.28765,853.27363 436.48805,789.60122 231.87967,689.2961 105.2454,627.21621 28.057205,555.00731 5.7315565,477.73649 -15.857428,403.01532 18.675415,325.09494 103.49837,257.13413 261.97136,130.16431 577.52768,38.367563 956.05327,9.1220865 1052.5794,1.6643252 1132.9671,-0.8438025 1243.561,0.15173306 1334.912,0.9740497 1360.4591,1.8765759 1437.3945,6.9994854 1795.0201,30.812738 2103.9533,111.49193 2278.3006,226.60565 c 30.0358,19.83134 50.9821,36.65555 73.6616,59.16579 25.25,25.06143 40.8251,45.75053 53.1698,70.62749 26.2036,52.80537 26.2036,101.39677 0,154.20214 -12.3888,24.96579 -27.9273,45.60167 -53.1728,70.61593 -65.5464,64.94605 -166.4913,120.21684 -305.6824,167.3715 -198.9991,67.41622 -444.2159,107.19382 -722.7324,117.23732 -45.0417,1.62424 -181.2435,1.56439 -227.7004,-0.10002 z"
     id="path1373"
     inkscape:connector-curvature="0" />
  <path
     style="opacity:0;fill:#ff00ff;fill-opacity:1;stroke:#d38d5f;stroke-width:1.44114149"
     d="M 1095.844,865.72576 C 748.28765,853.27363 436.48805,789.60122 231.87967,689.2961 105.2454,627.21621 28.057205,555.00731 5.7315565,477.73649 -15.857428,403.01532 18.675415,325.09494 103.49837,257.13413 261.97136,130.16431 577.52768,38.367563 956.05327,9.1220865 1052.5794,1.6643252 1132.9671,-0.8438025 1243.561,0.15173306 1334.912,0.9740497 1360.4591,1.8765759 1437.3945,6.9994854 1795.0201,30.812738 2103.9533,111.49193 2278.3006,226.60565 c 30.0358,19.83134 50.9821,36.65555 73.6616,59.16579 25.25,25.06143 40.8251,45.75053 53.1698,70.62749 26.2036,52.80537 26.2036,101.39677 0,154.20214 -12.3888,24.96579 -27.9273,45.60167 -53.1728,70.61593 -65.5464,64.94605 -166.4913,120.21684 -305.6824,167.3715 -198.9991,67.41622 -444.2159,107.19382 -722.7324,117.23732 -45.0417,1.62424 -181.2435,1.56439 -227.7004,-0.10002 z"
     id="path1375"
     inkscape:connector-curvature="0" />
  <path
     style="opacity:1;fill:#2171b6;fill-opacity:1;stroke:#d38d5f;stroke-width:1.44114149"
     d="M 1095.844,865.72576 C 748.28765,853.27363 436.48805,789.60122 231.87967,689.2961 105.2454,627.21621 28.057205,555.00731 5.7315565,477.73649 -15.857428,403.01532 18.675415,325.09494 103.49837,257.13413 261.97136,130.16431 577.52768,38.367563 956.05327,9.1220865 1052.5794,1.6643252 1132.9671,-0.8438025 1243.561,0.15173306 1334.912,0.9740497 1360.4591,1.8765759 1437.3945,6.9994854 1795.0201,30.812738 2103.9533,111.49193 2278.3006,226.60565 c 30.0358,19.83134 50.9821,36.65555 73.6616,59.16579 25.25,25.06143 40.8251,45.75053 53.1698,70.62749 26.2036,52.80537 26.2036,101.39677 0,154.20214 -12.3888,24.96579 -27.9273,45.60167 -53.1728,70.61593 -65.5464,64.94605 -166.4913,120.21684 -305.6824,167.3715 -198.9991,67.41622 -444.2159,107.19382 -722.7324,117.23732 -45.0417,1.62424 -181.2435,1.56439 -227.7004,-0.10002 z"
     id="path1377"
     inkscape:connector-curvature="0" />
</svg>
